{"glyphs":{":":{"x_min":0,"x_max":319,"ha":319,"o":"m 102 377 q 102 401 119 418 q 136 435 160 435 q 184 435 201 418 q 218 401 218 377 q 218 353 201 336 q 185 319 160 319 q 136 319 119 336 q 102 353 102 377 z m 102 49 q 102 73 119 89 q 136 106 160 106 q 184 106 201 89 q 218 73 218 49 q 218 25 201 8 q 185 -9 160 -9 q 136 -9 119 8 q 102 25 102 49 z"},"$":{"x_min":0,"x_max":590,"ha":590,"o":"m 300 428 q 403 392 451 337 q 499 281 499 197 q 499 106 446 48 q 393 -9 300 -18 l 300 -91 l 261 -91 l 261 -19 q 179 -15 128 28 q 77 71 62 149 l 134 193 q 147 129 179 96 q 210 62 261 56 l 261 351 q 170 386 127 435 q 84 484 84 554 q 84 629 130 677 q 177 725 261 734 l 261 782 l 300 782 l 300 734 q 360 729 402 703 q 444 676 469 626 l 396 580 q 381 617 357 637 q 333 657 300 660 z m 261 661 q 219 653 194 626 q 169 600 169 563 q 169 521 190 494 q 211 467 261 446 z m 300 56 q 358 67 387 101 q 415 135 415 192 q 415 242 388 275 q 362 309 300 334 z"},"?":{"x_min":0,"x_max":521,"ha":521,"o":"m 332 325 l 407 325 l 407 309 q 407 235 368 194 q 329 154 257 154 q 189 154 151 192 q 113 230 113 297 q 113 341 137 377 q 162 412 232 461 q 240 466 254 476 q 346 538 346 584 q 346 618 323 638 q 299 658 260 658 q 216 658 193 631 q 169 604 169 554 l 90 554 l 90 567 q 90 641 136 686 q 183 731 259 731 q 339 731 385 689 q 431 647 431 575 q 431 531 404 494 q 377 458 302 408 q 294 403 280 394 q 193 337 193 287 q 193 260 211 242 q 229 225 258 225 q 295 225 313 249 q 332 273 332 321 z m 191 39 q 191 63 208 80 q 225 97 249 97 q 273 97 290 80 q 307 63 307 39 q 307 15 290 -2 q 273 -19 249 -19 q 225 -19 208 -2 q 191 15 191 39 z"},"<":{"x_min":0,"x_max":833,"ha":833,"o":"m 704 497 l 216 298 l 704 100 l 704 37 l 129 273 l 129 323 l 704 559 z"},"'":{"x_min":0,"x_max":149,"ha":149,"o":"m 103 700 l 103 430 l 46 430 l 46 700 z"},"=":{"x_min":0,"x_max":833,"ha":833,"o":"m 709 233 l 709 176 l 124 176 l 124 233 z m 709 420 l 709 363 l 124 363 l 124 420 z"},"a":{"x_min":0,"x_max":569,"ha":569,"o":"m 420 219 q 420 295 379 341 q 337 387 271 387 q 202 387 164 345 q 125 302 125 226 q 125 145 164 101 q 203 57 274 57 q 342 57 381 100 q 420 143 420 219 z m 494 447 l 494 0 l 420 0 l 420 81 q 393 32 351 7 q 310 -19 258 -19 q 162 -19 103 47 q 44 113 44 222 q 44 333 101 398 q 158 463 254 463 q 310 463 351 438 q 393 413 418 363 l 418 447 z"},"L":{"x_min":0,"x_max":456,"ha":456,"o":"m 86 0 l 86 715 l 171 715 l 171 81 l 441 81 l 441 0 z"},"3":{"x_min":0,"x_max":590,"ha":590,"o":"m 55 181 l 142 181 l 142 173 q 142 118 178 86 q 213 54 275 54 q 346 54 384 90 q 423 126 423 192 q 423 261 384 297 q 344 332 267 332 q 257 332 252 332 q 247 332 242 331 l 242 401 q 246 401 254 400 q 261 400 265 400 q 339 400 376 432 q 414 464 414 528 q 414 584 380 617 q 346 650 287 650 q 225 650 190 619 q 155 589 152 531 l 68 531 q 73 624 130 673 q 187 722 289 722 q 388 722 445 671 q 503 620 503 532 q 503 469 469 425 q 436 381 376 365 q 440 354 476 308 q 512 261 512 189 q 512 92 448 36 q 385 -19 272 -19 q 173 -19 114 32 q 55 83 55 168 z"},";":{"x_min":0,"x_max":319,"ha":319,"o":"m 139 377 q 139 401 156 418 q 173 435 197 435 q 221 435 238 418 q 255 401 255 377 q 255 353 238 336 q 222 319 197 319 q 172 319 156 336 q 139 353 139 377 z m 64 -142 l 157 124 l 240 95 l 119 -164 z"},"J":{"x_min":0,"x_max":387,"ha":387,"o":"m 222 715 l 308 715 l 308 157 q 308 67 268 24 q 229 -19 146 -19 q 102 -19 67 -2 q 31 16 0 52 l 56 108 q 83 81 105 69 q 127 57 152 57 q 190 57 206 86 q 222 115 222 199 z"},"V":{"x_min":0,"x_max":580,"ha":580,"o":"m 290 -28 l -12 715 l 80 715 l 290 168 l 499 715 l 591 715 z"},"\"":{"x_min":0,"x_max":288,"ha":288,"o":"m 242 700 l 242 430 l 184 430 l 184 700 z m 103 700 l 103 430 l 46 430 l 46 700 z"},"7":{"x_min":0,"x_max":590,"ha":590,"o":"m 113 9 l 418 634 l 87 634 l 87 708 l 540 708 l 183 -27 z"},"S":{"x_min":0,"x_max":514,"ha":514,"o":"m 346 397 q 416 367 451 318 q 487 269 487 201 q 487 103 424 42 q 361 -18 258 -18 q 173 -18 116 25 q 59 68 39 148 l 116 186 q 132 121 168 88 q 204 54 258 54 q 322 54 361 91 q 401 128 401 187 q 401 235 373 270 q 346 306 290 330 l 203 367 q 132 397 97 444 q 62 491 62 556 q 62 632 119 682 q 175 732 263 732 q 328 732 375 705 q 422 677 448 624 l 378 579 q 354 621 324 641 q 294 661 257 661 q 209 661 178 632 q 148 603 148 557 q 148 519 171 491 q 195 463 244 442 z"},"}":{"x_min":0,"x_max":500,"ha":500,"o":"m 275 543 l 275 424 q 275 350 302 319 q 329 289 395 289 q 398 289 406 290 q 413 290 417 290 l 417 228 q 413 228 406 229 q 398 229 395 229 q 329 229 302 199 q 275 168 275 94 l 275 -24 q 275 -99 264 -130 q 253 -161 227 -178 q 208 -191 179 -197 q 151 -202 101 -202 l 81 -202 l 81 -141 q 85 -141 92 -142 q 100 -142 103 -142 q 162 -142 183 -119 q 204 -96 204 -22 l 204 95 q 204 176 225 210 q 247 244 301 259 q 247 274 225 308 q 204 342 204 423 l 204 541 q 204 614 183 637 q 161 660 100 660 l 81 660 l 81 721 l 98 721 q 147 721 177 715 q 207 709 227 696 q 253 679 264 648 q 275 617 275 543 z"},"Z":{"x_min":0,"x_max":566,"ha":566,"o":"m -5 0 l 397 637 l 71 637 l 71 715 l 541 715 l 143 81 l 525 81 l 525 0 z"},"x":{"x_min":0,"x_max":433,"ha":433,"o":"m 0 0 l 172 231 l 5 447 l 100 447 l 216 287 l 333 447 l 428 447 l 260 231 l 433 0 l 338 0 l 216 173 l 95 0 z"},")":{"x_min":0,"x_max":288,"ha":288,"o":"m 39 -192 q 91 -96 117 16 q 142 128 142 264 q 142 396 117 509 q 92 621 39 725 l 91 749 q 150 646 178 526 q 207 406 207 264 q 207 130 178 10 q 149 -111 91 -219 z"},"&":{"x_min":0,"x_max":669,"ha":669,"o":"m 424 141 l 251 350 l 230 336 q 171 296 149 264 q 127 231 127 192 q 127 135 164 98 q 202 60 258 60 q 298 60 338 80 q 378 99 424 141 z m 281 438 l 312 456 q 345 477 362 502 q 379 528 379 559 q 379 596 356 618 q 333 640 295 640 q 258 640 234 617 q 211 593 211 557 q 211 539 218 522 q 224 505 237 490 z m 540 0 l 471 83 q 424 35 370 11 q 315 -13 254 -13 q 159 -13 101 43 q 42 99 42 189 q 42 253 83 307 q 124 362 206 409 l 177 442 q 153 470 142 499 q 131 527 131 561 q 131 627 177 669 q 222 711 295 711 q 369 711 413 670 q 457 629 457 561 q 457 508 426 466 q 395 423 327 382 l 483 194 q 502 215 523 243 q 544 271 568 305 l 620 248 q 599 216 576 189 q 554 161 529 137 l 643 0 z"},"_":{"x_min":0,"x_max":500,"ha":500,"o":"m 500 -178 l 500 -236 l 0 -236 l 0 -178 z"},"v":{"x_min":0,"x_max":449,"ha":449,"o":"m 225 -28 l 4 447 l 90 447 l 224 135 l 359 447 l 445 447 z"},"O":{"x_min":0,"x_max":870,"ha":870,"o":"m 435 61 q 494 61 547 83 q 600 105 642 148 q 684 190 706 243 q 728 296 728 356 q 728 416 706 470 q 684 524 642 566 q 600 608 547 630 q 494 652 435 652 q 375 652 322 630 q 269 608 228 566 q 186 523 164 470 q 142 416 142 356 q 142 296 164 244 q 186 191 228 148 q 271 105 323 83 q 376 61 435 61 z m 817 356 q 817 279 789 211 q 760 144 706 91 q 652 38 581 10 q 511 -19 435 -19 q 359 -19 289 10 q 219 38 165 91 q 110 144 82 212 q 53 280 53 356 q 53 433 82 501 q 110 569 165 622 q 219 674 289 703 q 359 731 435 731 q 511 731 582 703 q 652 674 706 622 q 760 569 789 501 q 817 433 817 356 z"},"(":{"x_min":0,"x_max":288,"ha":288,"o":"m 249 -192 l 197 -219 q 139 -111 110 10 q 81 130 81 264 q 81 406 110 526 q 138 646 197 749 l 249 725 q 196 621 171 509 q 146 396 146 264 q 146 128 171 16 q 197 -96 249 -192 z"},"C":{"x_min":0,"x_max":725,"ha":725,"o":"m 666 544 q 615 600 557 626 q 499 653 428 653 q 372 653 318 630 q 264 607 224 566 q 183 523 163 471 q 142 418 142 355 q 142 305 154 263 q 167 221 191 186 q 234 125 297 92 q 359 59 432 59 q 500 59 559 87 q 618 116 666 172 l 666 59 q 613 21 552 1 q 490 -19 425 -19 q 368 -19 314 -2 q 261 15 214 47 q 136 101 94 180 q 53 259 53 354 q 53 437 81 504 q 108 572 165 627 q 220 680 286 706 q 353 732 431 732 q 493 732 551 713 q 609 694 666 655 z"},"W":{"x_min":0,"x_max":913,"ha":913,"o":"m -7 715 l 85 715 l 266 189 l 455 743 l 646 189 l 828 715 l 920 715 l 643 -28 l 456 525 l 270 -28 z"},"A":{"x_min":0,"x_max":625,"ha":625,"o":"m 312 555 l 198 292 l 426 292 z m 312 743 l 637 0 l 545 0 l 452 219 l 173 219 l 80 0 l -12 0 z"},"f":{"x_min":0,"x_max":289,"ha":289,"o":"m 98 0 l 98 384 l 12 384 l 12 447 l 98 447 l 98 576 q 98 688 126 727 q 154 766 227 766 q 245 766 261 764 q 278 761 293 756 l 293 677 q 278 685 263 689 q 249 693 233 693 q 199 693 187 671 q 174 650 174 566 l 174 447 l 293 447 l 293 384 l 176 384 l 176 0 z"},"Q":{"x_min":0,"x_max":870,"ha":870,"o":"m 525 255 l 631 141 q 677 177 701 232 q 726 288 726 353 q 726 397 716 437 q 706 477 686 509 q 646 576 580 612 q 515 649 435 649 q 376 649 323 627 q 269 605 228 564 q 187 523 165 469 q 143 416 143 357 q 143 281 174 221 q 204 160 265 116 q 300 91 341 78 q 383 65 428 65 q 468 65 502 73 q 537 81 566 97 l 420 255 z m 826 -69 l 721 -69 l 626 33 q 583 8 533 -4 q 482 -16 423 -16 q 362 -16 307 2 q 252 20 206 54 q 131 109 92 187 q 53 264 53 357 q 53 432 82 500 q 111 568 165 622 q 220 675 289 703 q 358 731 435 731 q 511 731 578 706 q 645 681 699 632 q 757 580 787 509 q 818 438 818 356 q 818 270 785 199 q 752 128 690 78 z"},"w":{"x_min":0,"x_max":692,"ha":692,"o":"m 352 463 l 486 142 l 606 447 l 692 447 l 493 -28 l 346 315 l 199 -28 l 0 447 l 85 447 l 204 142 l 340 463 z"},"-":{"x_min":0,"x_max":366,"ha":366,"o":"m 69 261 l 297 261 l 297 184 l 69 184 z"},"E":{"x_min":0,"x_max":521,"ha":521,"o":"m 86 0 l 86 715 l 463 715 l 463 637 l 171 637 l 171 432 l 463 432 l 463 353 l 171 353 l 171 79 l 463 79 l 463 0 z"},"s":{"x_min":0,"x_max":407,"ha":407,"o":"m 31 75 l 96 119 q 115 83 143 66 q 171 48 210 48 q 248 48 271 66 q 294 85 294 115 q 294 139 278 154 q 262 170 224 183 l 211 188 q 48 244 48 328 q 48 388 92 425 q 136 463 206 463 q 264 463 306 440 q 347 417 365 374 l 303 336 q 290 367 263 383 q 236 400 201 400 q 167 400 146 381 q 125 362 125 333 q 125 292 214 264 q 230 259 240 256 q 313 232 342 202 q 370 172 370 123 q 370 60 325 20 q 280 -19 207 -19 q 145 -19 101 4 q 57 28 31 75 z"},">":{"x_min":0,"x_max":833,"ha":833,"o":"m 704 323 l 704 273 l 129 37 l 129 100 l 617 298 l 129 497 l 129 559 z"},"l":{"x_min":0,"x_max":242,"ha":242,"o":"m 82 0 l 82 757 l 160 757 l 160 0 z"},"8":{"x_min":0,"x_max":590,"ha":590,"o":"m 296 657 q 237 657 203 625 q 169 593 169 538 q 169 483 202 453 q 235 422 294 422 q 354 422 388 452 q 422 483 422 538 q 422 593 388 625 q 354 657 296 657 z m 295 50 q 366 50 405 88 q 445 126 445 194 q 445 263 405 302 q 365 341 295 341 q 225 341 185 302 q 145 262 145 194 q 145 126 185 88 q 224 50 295 50 z m 202 378 q 142 397 111 438 q 81 479 81 543 q 81 622 141 672 q 200 722 296 722 q 394 722 452 671 q 510 621 510 536 q 510 478 478 437 q 447 395 389 378 q 459 358 498 309 q 536 259 536 190 q 536 92 472 37 q 409 -19 296 -19 q 185 -19 120 37 q 55 93 55 188 q 55 259 94 309 q 132 359 202 378 z"},"\\":{"x_min":0,"x_max":417,"ha":417,"o":"m 350 -93 l 0 731 l 66 731 l 417 -93 z"},"e":{"x_min":0,"x_max":514,"ha":514,"o":"m 395 274 q 391 333 356 365 q 320 397 259 397 q 203 397 166 364 q 129 330 123 274 z m 477 212 l 123 212 l 123 205 q 123 133 164 89 q 205 45 271 45 q 316 45 352 69 q 388 93 416 142 l 474 103 q 440 42 388 12 q 336 -19 267 -19 q 165 -19 102 48 q 39 116 39 225 q 39 330 102 397 q 164 464 262 464 q 361 464 419 400 q 477 337 477 227 z"},"b":{"x_min":0,"x_max":572,"ha":572,"o":"m 151 221 q 151 143 191 99 q 231 55 301 55 q 369 55 408 102 q 447 148 447 231 q 447 304 409 346 q 371 387 303 387 q 235 387 193 342 q 151 296 151 221 z m 78 757 l 154 757 l 154 363 q 180 413 221 438 q 262 463 317 463 q 413 463 470 397 q 528 332 528 222 q 528 113 469 47 q 411 -19 314 -19 q 262 -19 220 7 q 177 33 151 81 l 151 0 l 78 0 z"},"%":{"x_min":0,"x_max":740,"ha":740,"o":"m 716 166 q 716 78 677 30 q 639 -19 570 -19 q 501 -19 462 30 q 423 79 423 166 q 423 253 462 302 q 501 351 570 351 q 639 351 677 302 q 716 253 716 166 z m 570 31 q 606 31 625 66 q 645 101 645 166 q 645 233 626 267 q 607 301 570 301 q 534 301 515 266 q 495 231 495 166 q 495 101 515 66 q 534 31 570 31 z m 175 402 q 211 402 230 437 q 250 472 250 537 q 250 604 231 638 q 212 673 175 673 q 139 673 120 637 q 100 602 100 537 q 100 472 120 437 q 139 402 175 402 z m 322 537 q 322 450 283 401 q 245 353 175 353 q 105 353 67 401 q 28 450 28 537 q 28 625 67 673 q 106 722 175 722 q 244 722 283 673 q 322 625 322 537 z m 133 -19 l 544 722 l 604 722 l 194 -19 z"},"m":{"x_min":0,"x_max":848,"ha":848,"o":"m 700 0 l 700 263 q 700 331 673 364 q 646 397 589 397 q 558 397 532 385 q 506 372 488 349 q 475 332 469 308 q 463 285 463 231 l 463 0 l 389 0 l 389 263 q 389 331 362 364 q 334 397 278 397 q 247 397 220 385 q 194 372 176 349 q 163 332 157 310 q 152 287 152 231 l 152 0 l 78 0 l 78 447 l 153 447 l 153 378 q 181 421 219 442 q 258 463 308 463 q 362 463 400 440 q 438 417 458 372 q 487 418 526 440 q 565 463 617 463 q 692 463 734 421 q 776 379 776 304 l 776 0 z"},"#":{"x_min":0,"x_max":769,"ha":769,"o":"m 475 421 l 346 421 l 300 288 l 428 288 z m 450 711 l 369 481 l 496 481 l 578 711 l 648 711 l 568 481 l 718 481 l 697 421 l 545 421 l 499 288 l 660 288 l 639 228 l 477 228 l 396 -1 l 325 -1 l 407 228 l 278 228 l 196 -1 l 126 -1 l 207 228 l 51 228 l 72 288 l 228 288 l 275 421 l 108 421 l 129 481 l 297 481 l 379 711 z"},",":{"x_min":0,"x_max":295,"ha":295,"o":"m 59 -142 l 152 124 l 235 95 l 115 -164 z"},"n":{"x_min":0,"x_max":557,"ha":557,"o":"m 78 0 l 78 447 l 153 447 l 153 378 q 182 421 222 442 q 263 463 316 463 q 395 463 439 421 q 484 379 484 304 l 484 0 l 406 0 l 406 263 q 406 331 377 364 q 349 397 289 397 q 255 397 227 385 q 199 372 180 349 q 166 332 160 309 q 154 287 154 231 l 154 0 z"},"h":{"x_min":0,"x_max":557,"ha":557,"o":"m 78 0 l 78 757 l 153 757 l 153 378 q 182 421 222 442 q 263 463 316 463 q 395 463 439 421 q 484 379 484 304 l 484 0 l 406 0 l 406 263 q 406 331 377 364 q 349 397 289 397 q 255 397 227 385 q 199 372 180 349 q 166 332 160 309 q 154 287 154 231 l 154 0 z"},"z":{"x_min":0,"x_max":431,"ha":431,"o":"m 15 0 l 271 380 l 31 380 l 31 447 l 406 447 l 150 67 l 404 67 l 404 0 z"},"B":{"x_min":0,"x_max":562,"ha":562,"o":"m 86 0 l 86 715 l 235 715 q 313 715 351 707 q 388 699 415 679 q 449 654 468 614 q 487 574 487 527 q 487 470 460 432 q 433 394 381 379 q 444 369 481 322 q 518 275 518 203 q 518 160 502 121 q 487 82 459 54 q 429 24 384 12 q 340 0 235 0 z m 169 335 l 169 74 l 235 74 q 303 74 333 80 q 363 85 381 98 q 403 114 416 142 q 428 169 428 203 q 428 242 413 271 q 398 300 369 316 q 352 326 330 331 q 307 335 260 335 l 235 335 z m 169 641 l 169 402 l 235 402 q 326 402 363 428 q 400 455 400 517 q 400 586 365 614 q 331 641 235 641 z"},"K":{"x_min":0,"x_max":591,"ha":591,"o":"m 86 0 l 86 715 l 170 715 l 170 397 l 470 715 l 572 715 l 265 393 l 602 0 l 492 0 l 170 385 l 170 0 z"},"R":{"x_min":0,"x_max":535,"ha":535,"o":"m 86 0 l 86 715 l 254 715 q 326 715 359 707 q 393 699 418 679 q 450 654 467 613 q 485 571 485 520 q 485 432 436 386 q 387 341 292 341 l 277 341 l 550 0 l 442 0 l 181 341 l 169 341 l 169 0 z m 169 643 l 169 404 l 234 404 q 333 404 367 429 q 401 455 401 519 q 401 588 366 615 q 332 643 234 643 z"},"T":{"x_min":0,"x_max":507,"ha":507,"o":"m 211 0 l 211 634 l 9 634 l 9 715 l 498 715 l 498 634 l 297 634 l 297 0 z"},"P":{"x_min":0,"x_max":508,"ha":508,"o":"m 169 321 l 169 0 l 86 0 l 86 715 l 236 715 q 314 715 352 707 q 389 698 416 679 q 450 655 469 612 q 489 570 489 518 q 489 466 469 424 q 450 381 416 357 q 389 337 352 329 q 315 321 236 321 l 212 321 z m 169 398 l 212 398 q 321 398 359 424 q 397 449 397 513 q 397 582 358 609 q 319 637 212 637 l 169 637 z"},"|":{"x_min":0,"x_max":500,"ha":500,"o":"m 281 764 l 281 -236 l 219 -236 l 219 764 z"},"t":{"x_min":0,"x_max":259,"ha":259,"o":"m 90 384 l 8 384 l 8 447 l 90 447 l 90 627 l 168 627 l 168 447 l 250 447 l 250 384 l 168 384 l 168 0 l 90 0 z"},"M":{"x_min":0,"x_max":838,"ha":838,"o":"m 419 -28 l 197 486 l 107 0 l 24 0 l 169 743 l 419 152 l 669 743 l 814 0 l 731 0 l 640 486 z"},"g":{"x_min":0,"x_max":571,"ha":571,"o":"m 420 222 q 420 297 379 343 q 338 389 271 389 q 202 389 164 347 q 125 304 125 228 q 125 147 164 103 q 203 59 274 59 q 342 59 381 102 q 420 146 420 222 z m 494 447 l 494 8 q 494 -65 484 -96 q 475 -126 452 -151 q 421 -185 376 -201 q 331 -218 272 -218 q 170 -218 114 -171 q 57 -125 54 -40 l 140 -40 l 140 -46 q 140 -96 175 -124 q 209 -151 273 -151 q 319 -151 351 -136 q 384 -121 401 -92 q 411 -75 416 -53 q 420 -31 420 10 l 420 45 l 420 85 q 394 37 352 11 q 310 -14 258 -14 q 162 -14 103 51 q 44 117 44 225 q 44 334 101 399 q 158 463 254 463 q 310 463 352 438 q 394 413 418 364 l 418 447 z"},"j":{"x_min":0,"x_max":242,"ha":242,"o":"m 64 662 q 64 685 80 701 q 97 718 120 718 q 143 718 159 701 q 176 685 176 661 q 176 638 160 622 q 144 606 120 606 q 97 606 80 622 q 64 638 64 662 z m 82 -218 l 82 447 l 159 447 l 159 -218 z"},"i":{"x_min":0,"x_max":242,"ha":242,"o":"m 64 662 q 64 685 80 701 q 97 718 120 718 q 143 718 159 701 q 176 685 176 661 q 176 638 160 622 q 144 606 120 606 q 97 606 80 622 q 64 638 64 662 z m 82 0 l 82 447 l 159 447 l 159 0 z"},"y":{"x_min":0,"x_max":440,"ha":440,"o":"m 60 -218 l 181 44 l 6 447 l 94 447 l 224 126 l 362 447 l 446 447 l 146 -218 z"},"@":{"x_min":0,"x_max":1000,"ha":1000,"o":"m 631 412 l 659 471 l 713 471 l 644 194 q 641 182 640 172 q 638 163 638 155 q 638 133 652 122 q 665 111 692 111 q 714 111 741 123 q 768 134 791 154 q 834 191 859 250 q 884 309 884 374 q 884 504 788 583 q 693 662 535 662 q 453 662 383 637 q 312 611 256 562 q 188 502 153 424 q 118 346 118 251 q 118 167 148 103 q 177 39 239 -10 q 288 -49 356 -71 q 424 -92 500 -92 q 584 -92 663 -68 q 743 -44 808 0 l 830 -32 q 758 -85 677 -113 q 596 -140 508 -140 q 415 -140 338 -117 q 261 -95 203 -50 q 128 7 92 83 q 55 159 55 255 q 55 334 80 406 q 104 477 153 537 q 224 623 323 667 q 423 712 545 712 q 625 712 697 691 q 768 669 818 630 q 881 582 913 518 q 946 454 946 380 q 946 297 915 229 q 885 161 826 114 q 792 87 754 73 q 715 59 674 59 q 625 59 601 78 q 577 97 577 135 q 577 136 578 140 q 578 144 578 146 q 553 104 516 81 q 479 59 433 59 q 358 59 319 101 q 280 142 280 221 q 280 333 347 411 q 414 489 509 489 q 553 489 584 469 q 614 450 631 412 z m 587 231 l 616 349 q 608 393 581 417 q 554 442 515 442 q 444 442 396 378 q 348 313 348 218 q 348 164 373 135 q 398 106 444 106 q 494 106 533 140 q 573 175 587 231 z"},".":{"x_min":0,"x_max":295,"ha":295,"o":"m 89 48 q 89 72 106 89 q 123 106 147 106 q 171 106 189 89 q 206 72 206 48 q 206 24 189 8 q 172 -9 147 -9 q 123 -9 106 8 q 89 24 89 48 z"},"p":{"x_min":0,"x_max":572,"ha":572,"o":"m 152 222 q 152 147 193 102 q 235 56 303 56 q 370 56 408 98 q 447 139 447 213 q 447 295 408 342 q 370 389 302 389 q 232 389 192 345 q 152 300 152 222 z m 78 -218 l 78 447 l 151 447 l 151 363 q 177 411 219 437 q 262 463 314 463 q 411 463 469 397 q 528 331 528 222 q 528 111 470 46 q 413 -19 317 -19 q 262 -19 221 6 q 180 31 154 81 l 154 -218 z"},"X":{"x_min":0,"x_max":529,"ha":529,"o":"m -6 0 l 214 380 l 9 715 l 111 715 l 264 443 l 412 715 l 509 715 l 306 372 l 534 0 l 434 0 l 258 308 l 91 0 z"},"*":{"x_min":0,"x_max":414,"ha":414,"o":"m 74 439 l 50 482 l 159 545 l 50 608 l 75 651 l 185 587 l 184 715 l 234 715 l 233 590 l 340 651 l 364 607 l 257 545 l 364 484 l 340 440 l 234 501 l 234 379 l 184 379 l 184 503 z"},"Y":{"x_min":0,"x_max":572,"ha":572,"o":"m 243 0 l 243 327 l 1 715 l 99 715 l 286 405 l 472 715 l 570 715 l 328 327 l 328 0 z"},"c":{"x_min":0,"x_max":449,"ha":449,"o":"m 421 106 l 421 17 q 391 -1 353 -10 q 315 -19 271 -19 q 167 -19 104 47 q 41 112 41 219 q 41 327 106 395 q 172 463 274 463 q 311 463 346 455 q 382 447 413 432 l 413 350 q 384 369 353 379 q 321 389 289 389 q 214 389 168 342 q 123 295 123 217 q 123 148 169 102 q 214 55 283 55 q 318 55 351 67 q 384 80 421 106 z"},"!":{"x_min":0,"x_max":319,"ha":319,"o":"m 102 39 q 102 63 119 80 q 136 97 160 97 q 184 97 201 80 q 218 63 218 39 q 218 15 201 -2 q 185 -19 160 -19 q 136 -19 119 -2 q 102 15 102 39 z m 121 162 l 121 731 l 199 731 l 199 162 z"},"/":{"x_min":0,"x_max":417,"ha":417,"o":"m 350 731 l 417 731 l 66 -93 l 0 -93 z"},"[":{"x_min":0,"x_max":288,"ha":288,"o":"m 161 -135 l 250 -135 l 250 -201 l 92 -201 l 92 731 l 250 731 l 250 665 l 161 665 z"},"6":{"x_min":0,"x_max":590,"ha":590,"o":"m 146 208 q 146 136 186 94 q 226 52 294 52 q 360 52 401 95 q 441 138 441 209 q 441 282 400 325 q 360 367 289 367 q 225 367 186 323 q 146 279 146 208 z m 203 404 q 229 421 256 430 q 283 438 313 438 q 409 438 469 377 q 529 315 529 217 q 529 109 461 45 q 393 -19 277 -19 q 179 -19 118 45 q 58 110 58 215 q 58 316 192 506 l 197 513 l 360 743 l 434 704 z"},"r":{"x_min":0,"x_max":351,"ha":351,"o":"m 79 0 l 79 447 l 147 447 l 147 354 q 178 412 212 437 q 247 462 297 462 q 311 462 323 460 q 336 458 349 453 l 323 384 q 310 389 298 391 q 287 393 276 393 q 215 393 185 349 q 155 306 155 218 l 155 0 z"},"2":{"x_min":0,"x_max":590,"ha":590,"o":"m 487 81 l 487 0 l 56 0 l 207 179 q 222 197 250 230 q 425 437 425 519 q 425 574 386 609 q 347 644 284 644 q 216 644 180 606 q 144 568 144 497 l 144 489 l 64 489 q 64 492 63 499 q 63 505 63 508 q 63 609 122 666 q 181 722 287 722 q 391 722 450 670 q 509 617 509 524 q 509 457 469 385 q 429 312 328 202 l 216 81 z"},"{":{"x_min":0,"x_max":500,"ha":500,"o":"m 419 659 q 415 659 408 660 q 400 660 397 660 q 338 660 317 637 q 296 614 296 541 l 296 423 q 296 342 275 308 q 253 274 199 259 q 253 244 275 210 q 296 176 296 95 l 296 -23 q 296 -96 317 -118 q 338 -141 400 -141 l 419 -141 l 419 -202 l 402 -202 q 354 -202 324 -196 q 294 -190 274 -177 q 247 -159 236 -128 q 225 -97 225 -24 l 225 95 q 225 169 198 199 q 171 229 106 229 q 103 229 95 229 q 88 228 84 228 l 84 290 q 88 290 95 290 q 103 289 106 289 q 171 289 198 319 q 225 349 225 424 l 225 543 q 225 618 236 648 q 247 679 274 696 q 294 709 324 715 q 353 721 402 721 l 419 721 z"},"9":{"x_min":0,"x_max":590,"ha":590,"o":"m 439 495 q 439 567 399 610 q 359 652 291 652 q 225 652 184 609 q 144 566 144 495 q 144 421 184 379 q 225 337 295 337 q 359 337 399 381 q 439 425 439 495 z m 382 300 q 355 283 329 274 q 302 266 272 266 q 176 266 116 327 q 56 389 56 487 q 56 595 124 659 q 191 722 307 722 q 405 722 466 657 q 526 593 526 488 q 526 387 392 196 l 388 191 l 225 -39 l 151 -1 z"}," ":{"x_min":0,"x_max":295,"ha":295,"o":""},"I":{"x_min":0,"x_max":259,"ha":259,"o":"m 87 0 l 87 715 l 172 715 l 172 0 z"},"H":{"x_min":0,"x_max":722,"ha":722,"o":"m 86 0 l 86 715 l 171 715 l 171 440 l 551 440 l 551 715 l 637 715 l 637 0 l 551 0 l 551 359 l 171 359 l 171 0 z"},"4":{"x_min":0,"x_max":590,"ha":590,"o":"m 357 0 l 357 154 l 22 154 l 405 722 l 441 722 l 441 223 l 525 223 l 525 154 l 441 154 l 441 0 z m 357 223 l 357 537 l 148 223 z"},"~":{"x_min":0,"x_max":833,"ha":833,"o":"m 747 306 q 698 271 651 253 q 604 236 558 236 q 537 236 514 240 q 491 245 465 253 q 450 258 422 268 q 324 303 275 303 q 234 303 190 285 q 146 267 87 225 l 87 290 q 138 326 186 343 q 233 361 276 361 q 303 361 333 355 q 362 349 418 329 q 425 327 439 321 q 517 293 559 293 q 600 293 644 311 q 688 329 747 370 z"},"D":{"x_min":0,"x_max":725,"ha":725,"o":"m 172 80 l 226 80 q 358 80 409 92 q 459 103 493 131 q 537 167 560 225 q 583 283 583 358 q 583 433 560 490 q 538 547 493 584 q 459 612 407 624 q 355 636 226 636 l 172 636 z m 86 0 l 86 715 l 223 715 q 375 715 438 699 q 500 684 547 648 q 608 601 640 527 q 672 453 672 357 q 672 261 640 188 q 609 114 547 67 q 500 31 440 15 q 380 0 254 0 l 223 0 z"},"^":{"x_min":0,"x_max":1000,"ha":1000,"o":"m 539 712 l 793 440 l 716 440 l 500 654 l 284 440 l 206 440 l 460 712 z"},"0":{"x_min":0,"x_max":590,"ha":590,"o":"m 296 -19 q 180 -19 114 80 q 47 179 47 352 q 47 524 113 623 q 179 722 294 722 q 411 722 477 625 q 543 527 543 352 q 543 178 477 79 q 412 -19 296 -19 z m 295 51 q 374 51 414 127 q 455 204 455 351 q 455 499 414 576 q 374 653 295 653 q 219 653 177 574 q 135 495 135 353 q 135 210 177 130 q 219 51 295 51 z"},"F":{"x_min":0,"x_max":507,"ha":507,"o":"m 86 0 l 86 715 l 463 715 l 463 637 l 171 637 l 171 432 l 463 432 l 463 353 l 171 353 l 171 0 z"},"`":{"x_min":0,"x_max":500,"ha":500,"o":"m 320 517 l 261 517 l 122 687 l 220 687 z"},"k":{"x_min":0,"x_max":493,"ha":493,"o":"m 79 0 l 79 757 l 156 757 l 156 244 l 371 447 l 473 447 l 250 242 l 493 0 l 386 0 l 156 236 l 156 0 z"},"u":{"x_min":0,"x_max":547,"ha":547,"o":"m 150 447 l 150 227 q 150 131 178 93 q 207 54 275 54 q 343 54 371 92 q 399 130 399 227 l 399 447 l 477 447 l 477 186 q 477 85 425 33 q 374 -19 273 -19 q 173 -19 122 33 q 70 85 70 186 l 70 447 z"},"]":{"x_min":0,"x_max":288,"ha":288,"o":"m 127 -135 l 127 665 l 38 665 l 38 731 l 196 731 l 196 -201 l 38 -201 l 38 -135 z"},"U":{"x_min":0,"x_max":720,"ha":720,"o":"m 83 715 l 169 715 l 169 270 q 169 162 215 111 q 261 60 360 60 q 458 60 505 111 q 551 162 551 270 l 551 715 l 637 715 l 637 270 q 637 125 568 53 q 499 -19 360 -19 q 221 -19 152 53 q 83 125 83 270 z"},"o":{"x_min":0,"x_max":569,"ha":569,"o":"m 123 222 q 123 151 170 102 q 218 53 285 53 q 352 53 399 102 q 446 151 446 222 q 446 293 399 342 q 352 391 285 391 q 217 391 170 342 q 123 293 123 222 z m 42 222 q 42 271 60 315 q 78 359 113 393 q 147 427 191 445 q 235 463 285 463 q 334 463 378 445 q 421 427 457 392 q 492 358 510 315 q 528 271 528 222 q 528 173 510 130 q 492 87 457 53 q 421 18 377 0 q 333 -19 285 -19 q 236 -19 192 -1 q 147 18 113 52 q 78 87 60 130 q 42 173 42 222 z"},"N":{"x_min":0,"x_max":775,"ha":775,"o":"m 86 0 l 86 743 l 609 172 l 609 715 l 690 715 l 690 -28 l 167 537 l 167 0 z"},"+":{"x_min":0,"x_max":833,"ha":833,"o":"m 446 596 l 446 327 l 709 327 l 709 270 l 446 270 l 446 0 l 388 0 l 388 270 l 124 270 l 124 327 l 388 327 l 388 596 z"},"G":{"x_min":0,"x_max":814,"ha":814,"o":"m 479 369 l 774 369 l 774 345 q 774 176 678 79 q 583 -19 417 -19 q 367 -19 321 -8 q 275 2 237 23 q 149 71 101 156 q 53 242 53 350 q 53 439 82 511 q 110 583 168 638 q 216 684 280 708 q 344 731 422 731 q 525 731 601 694 q 676 656 726 581 l 655 524 q 616 589 559 621 q 501 654 425 654 q 300 654 223 570 q 145 486 145 350 q 145 222 224 140 q 303 58 425 58 q 532 58 604 123 q 675 188 683 293 l 479 293 z"},"q":{"x_min":0,"x_max":572,"ha":572,"o":"m 420 222 q 420 300 380 345 q 340 389 270 389 q 202 389 163 342 q 124 295 124 213 q 124 139 162 98 q 201 56 268 56 q 336 56 378 102 q 420 147 420 222 z m 494 -218 l 418 -218 l 418 81 q 393 31 352 6 q 311 -19 255 -19 q 159 -19 101 46 q 44 111 44 222 q 44 331 103 397 q 161 463 258 463 q 310 463 352 437 q 394 411 420 363 l 420 447 l 494 447 z"},"d":{"x_min":0,"x_max":572,"ha":572,"o":"m 420 221 q 420 296 378 342 q 337 387 269 387 q 201 387 163 346 q 125 304 125 231 q 125 148 164 102 q 202 55 270 55 q 340 55 380 99 q 420 143 420 221 z m 494 757 l 494 0 l 420 0 l 420 81 q 394 33 352 7 q 310 -19 258 -19 q 162 -19 103 47 q 44 113 44 222 q 44 332 102 397 q 159 463 255 463 q 311 463 352 438 q 393 413 418 363 l 418 757 z"},"1":{"x_min":0,"x_max":590,"ha":590,"o":"m 273 0 l 273 634 l 127 634 l 175 708 l 356 708 l 356 0 z"},"5":{"x_min":0,"x_max":590,"ha":590,"o":"m 104 357 l 88 360 l 173 708 l 487 708 l 487 635 l 231 635 l 186 451 q 210 464 238 470 q 266 477 297 477 q 402 477 463 414 q 524 352 524 244 q 524 122 453 52 q 383 -19 261 -19 q 188 -19 135 7 q 83 32 46 86 l 106 156 q 130 107 170 81 q 210 55 263 55 q 340 55 387 104 q 434 154 434 236 q 434 314 385 361 q 337 408 256 408 q 213 408 175 395 q 137 382 104 357 z"}}}
